<mxfile host="app.diagrams.net" agent="Mozilla/5.0 (Macintosh; Intel Mac OS X 10_15_7) AppleWebKit/537.36 (KHTML, like Gecko) Chrome/126.0.0.0 Safari/537.36" version="24.7.6">
  <diagram name="Page-1" id="pYZ3j58lrSrF96leZVAK">
    <mxGraphModel dx="955" dy="492" grid="1" gridSize="10" guides="1" tooltips="1" connect="1" arrows="1" fold="1" page="1" pageScale="1" pageWidth="850" pageHeight="1100" math="0" shadow="0">
      <root>
        <mxCell id="0" />
        <mxCell id="1" parent="0" />
        <mxCell id="GUE29b8jbTDgsh-AKQi5-52" value="" style="rounded=1;whiteSpace=wrap;html=1;" vertex="1" parent="1">
          <mxGeometry x="30" y="100" width="800" height="260" as="geometry" />
        </mxCell>
        <mxCell id="GUE29b8jbTDgsh-AKQi5-15" value="" style="rounded=0;whiteSpace=wrap;html=1;" vertex="1" parent="1">
          <mxGeometry x="240" y="120" width="360" height="220" as="geometry" />
        </mxCell>
        <mxCell id="GUE29b8jbTDgsh-AKQi5-6" value="" style="rounded=1;whiteSpace=wrap;html=1;" vertex="1" parent="1">
          <mxGeometry x="220" y="385" width="400" height="130" as="geometry" />
        </mxCell>
        <mxCell id="GUE29b8jbTDgsh-AKQi5-1" value="DSP Module" style="rounded=0;whiteSpace=wrap;html=1;" vertex="1" parent="1">
          <mxGeometry x="360" y="420" width="120" height="60" as="geometry" />
        </mxCell>
        <mxCell id="GUE29b8jbTDgsh-AKQi5-3" value="DAC" style="shape=hexagon;perimeter=hexagonPerimeter2;whiteSpace=wrap;html=1;fixedSize=1;" vertex="1" parent="1">
          <mxGeometry x="530" y="425" width="70" height="50" as="geometry" />
        </mxCell>
        <mxCell id="GUE29b8jbTDgsh-AKQi5-7" value="Monitoring Thread" style="rounded=0;whiteSpace=wrap;html=1;" vertex="1" parent="1">
          <mxGeometry x="460" y="260" width="120" height="60" as="geometry" />
        </mxCell>
        <mxCell id="GUE29b8jbTDgsh-AKQi5-9" value="Control Thread" style="rounded=0;whiteSpace=wrap;html=1;" vertex="1" parent="1">
          <mxGeometry x="260" y="260" width="120" height="60" as="geometry" />
        </mxCell>
        <mxCell id="GUE29b8jbTDgsh-AKQi5-13" value="&lt;div&gt;Touchscreen&lt;/div&gt;&lt;div&gt;UI Thread&lt;/div&gt;" style="rounded=0;whiteSpace=wrap;html=1;" vertex="1" parent="1">
          <mxGeometry x="260" y="140" width="120" height="60" as="geometry" />
        </mxCell>
        <mxCell id="GUE29b8jbTDgsh-AKQi5-14" value="Main Thread" style="rounded=0;whiteSpace=wrap;html=1;" vertex="1" parent="1">
          <mxGeometry x="460" y="140" width="120" height="60" as="geometry" />
        </mxCell>
        <mxCell id="GUE29b8jbTDgsh-AKQi5-16" value="" style="shape=flexArrow;endArrow=classic;html=1;rounded=0;" edge="1" parent="1" source="GUE29b8jbTDgsh-AKQi5-15">
          <mxGeometry width="50" height="50" relative="1" as="geometry">
            <mxPoint x="375" y="390" as="sourcePoint" />
            <mxPoint x="425" y="340" as="targetPoint" />
          </mxGeometry>
        </mxCell>
        <mxCell id="GUE29b8jbTDgsh-AKQi5-17" value="" style="shape=flexArrow;endArrow=classic;html=1;rounded=0;" edge="1" parent="1" source="GUE29b8jbTDgsh-AKQi5-15">
          <mxGeometry width="50" height="50" relative="1" as="geometry">
            <mxPoint x="370" y="390" as="sourcePoint" />
            <mxPoint x="420" y="340" as="targetPoint" />
          </mxGeometry>
        </mxCell>
        <mxCell id="GUE29b8jbTDgsh-AKQi5-18" value="Control data&lt;br&gt;over I2C" style="shape=flexArrow;endArrow=classic;html=1;rounded=0;fillColor=#FFFFFF;exitX=0.918;exitY=0.993;exitDx=0;exitDy=0;exitPerimeter=0;" edge="1" parent="1" source="GUE29b8jbTDgsh-AKQi5-9">
          <mxGeometry width="50" height="50" relative="1" as="geometry">
            <mxPoint x="370" y="320" as="sourcePoint" />
            <mxPoint x="370" y="420" as="targetPoint" />
          </mxGeometry>
        </mxCell>
        <mxCell id="GUE29b8jbTDgsh-AKQi5-20" value="MIDI&lt;br&gt;over USB" style="shape=hexagon;perimeter=hexagonPerimeter2;whiteSpace=wrap;html=1;fixedSize=1;" vertex="1" parent="1">
          <mxGeometry x="85" y="210" width="90" height="50" as="geometry" />
        </mxCell>
        <mxCell id="GUE29b8jbTDgsh-AKQi5-21" value="Audio output&lt;div&gt;over USB&lt;/div&gt;" style="shape=hexagon;perimeter=hexagonPerimeter2;whiteSpace=wrap;html=1;fixedSize=1;" vertex="1" parent="1">
          <mxGeometry x="700" y="240" width="105" height="50" as="geometry" />
        </mxCell>
        <mxCell id="GUE29b8jbTDgsh-AKQi5-22" value="Touchscreen" style="shape=hexagon;perimeter=hexagonPerimeter2;whiteSpace=wrap;html=1;fixedSize=1;" vertex="1" parent="1">
          <mxGeometry x="85" y="130" width="90" height="50" as="geometry" />
        </mxCell>
        <mxCell id="GUE29b8jbTDgsh-AKQi5-24" value="" style="endArrow=classic;html=1;rounded=0;" edge="1" parent="1" source="GUE29b8jbTDgsh-AKQi5-2">
          <mxGeometry width="50" height="50" relative="1" as="geometry">
            <mxPoint x="280" y="450" as="sourcePoint" />
            <mxPoint x="360" y="450" as="targetPoint" />
          </mxGeometry>
        </mxCell>
        <mxCell id="GUE29b8jbTDgsh-AKQi5-25" value="" style="endArrow=classic;html=1;rounded=0;entryX=0;entryY=0.5;entryDx=0;entryDy=0;" edge="1" parent="1" target="GUE29b8jbTDgsh-AKQi5-3">
          <mxGeometry width="50" height="50" relative="1" as="geometry">
            <mxPoint x="480" y="450" as="sourcePoint" />
            <mxPoint x="510" y="410" as="targetPoint" />
          </mxGeometry>
        </mxCell>
        <mxCell id="GUE29b8jbTDgsh-AKQi5-31" value="Remote control app&lt;div&gt;over WiFi Direct&lt;/div&gt;" style="shape=hexagon;perimeter=hexagonPerimeter2;whiteSpace=wrap;html=1;fixedSize=1;" vertex="1" parent="1">
          <mxGeometry x="60" y="290" width="140" height="50" as="geometry" />
        </mxCell>
        <mxCell id="GUE29b8jbTDgsh-AKQi5-33" value="Digital audio&lt;br&gt;over USB" style="shape=flexArrow;endArrow=classic;html=1;rounded=0;entryX=0;entryY=0.5;entryDx=0;entryDy=0;exitX=1.002;exitY=0.078;exitDx=0;exitDy=0;exitPerimeter=0;" edge="1" parent="1" source="GUE29b8jbTDgsh-AKQi5-7" target="GUE29b8jbTDgsh-AKQi5-21">
          <mxGeometry width="50" height="50" relative="1" as="geometry">
            <mxPoint x="580" y="290" as="sourcePoint" />
            <mxPoint x="630" y="240" as="targetPoint" />
          </mxGeometry>
        </mxCell>
        <mxCell id="GUE29b8jbTDgsh-AKQi5-35" value="" style="endArrow=classic;html=1;rounded=0;entryX=1;entryY=0.75;entryDx=0;entryDy=0;exitX=0;exitY=0.75;exitDx=0;exitDy=0;" edge="1" parent="1">
          <mxGeometry width="50" height="50" relative="1" as="geometry">
            <mxPoint x="460" y="290" as="sourcePoint" />
            <mxPoint x="380" y="290" as="targetPoint" />
          </mxGeometry>
        </mxCell>
        <mxCell id="GUE29b8jbTDgsh-AKQi5-42" value="Digital audio&lt;br&gt;over I2S" style="shape=flexArrow;endArrow=classic;startArrow=classic;html=1;rounded=0;fillColor=#FFFFFF;" edge="1" parent="1">
          <mxGeometry width="100" height="100" relative="1" as="geometry">
            <mxPoint x="470" y="420" as="sourcePoint" />
            <mxPoint x="470" y="320" as="targetPoint" />
          </mxGeometry>
        </mxCell>
        <mxCell id="GUE29b8jbTDgsh-AKQi5-48" value="" style="endArrow=classic;html=1;rounded=0;" edge="1" parent="1" target="GUE29b8jbTDgsh-AKQi5-2">
          <mxGeometry width="50" height="50" relative="1" as="geometry">
            <mxPoint x="280" y="450" as="sourcePoint" />
            <mxPoint x="360" y="450" as="targetPoint" />
          </mxGeometry>
        </mxCell>
        <mxCell id="GUE29b8jbTDgsh-AKQi5-2" value="ADC" style="shape=hexagon;perimeter=hexagonPerimeter2;whiteSpace=wrap;html=1;fixedSize=1;" vertex="1" parent="1">
          <mxGeometry x="240" y="425" width="70" height="50" as="geometry" />
        </mxCell>
        <mxCell id="GUE29b8jbTDgsh-AKQi5-49" value="Streaming audio&lt;div&gt;over Bluetooth&lt;/div&gt;" style="shape=hexagon;perimeter=hexagonPerimeter2;whiteSpace=wrap;html=1;fixedSize=1;" vertex="1" parent="1">
          <mxGeometry x="691.25" y="300" width="122.5" height="50" as="geometry" />
        </mxCell>
        <mxCell id="GUE29b8jbTDgsh-AKQi5-51" value="Digital audio&lt;br&gt;over Bluetooth" style="shape=flexArrow;endArrow=classic;html=1;rounded=0;entryX=1;entryY=0.75;entryDx=0;entryDy=0;" edge="1" parent="1">
          <mxGeometry width="50" height="50" relative="1" as="geometry">
            <mxPoint x="700" y="310" as="sourcePoint" />
            <mxPoint x="580" y="310" as="targetPoint" />
            <mxPoint as="offset" />
          </mxGeometry>
        </mxCell>
        <mxCell id="GUE29b8jbTDgsh-AKQi5-53" value="" style="endArrow=classic;html=1;rounded=0;entryX=0.672;entryY=0.007;entryDx=0;entryDy=0;entryPerimeter=0;" edge="1" parent="1" target="GUE29b8jbTDgsh-AKQi5-9">
          <mxGeometry width="50" height="50" relative="1" as="geometry">
            <mxPoint x="340" y="200" as="sourcePoint" />
            <mxPoint x="390" y="150" as="targetPoint" />
          </mxGeometry>
        </mxCell>
        <mxCell id="GUE29b8jbTDgsh-AKQi5-56" value="&lt;h2&gt;Raspberry Pi SoC&lt;/h2&gt;" style="text;html=1;align=center;verticalAlign=middle;whiteSpace=wrap;rounded=0;" vertex="1" parent="1">
          <mxGeometry x="335" y="70" width="180" height="30" as="geometry" />
        </mxCell>
        <mxCell id="GUE29b8jbTDgsh-AKQi5-57" value="&lt;h2&gt;DSP Processor&lt;/h2&gt;" style="text;html=1;align=center;verticalAlign=middle;whiteSpace=wrap;rounded=0;" vertex="1" parent="1">
          <mxGeometry x="345" y="515" width="150" height="30" as="geometry" />
        </mxCell>
      </root>
    </mxGraphModel>
  </diagram>
</mxfile>
